# xmcd CD database file
#
# Track frame offsets:
#	150
#	12195
#	26063
#	39358
#	52633
#	68339
#	83996
#	99840
#	114038
#	131604
#	141820
#	157745
#
# Disc length: 2307 seconds
#
# Revision: 0
# Processed by: cddbd v1.5.2PL0 Copyright (c) Steve Scherf et al.
# Submitted via: Feurio! 1.68 - http://www.feurio.com
#
DISCID=7c09010c
DTITLE=Lara - Ganz nah bei Dir
DYEAR=1900
DGENRE=
TTITLE0=So ein Träumer
TTITLE1=Eileen's kleiner Himmel
TTITLE2=Jonas komm
TTITLE3=Ein kleines Abenteuer
TTITLE4=Wenn ich jetzt nicht geh'
TTITLE5=Überall fällt Schnee
TTITLE6=Austria
TTITLE7=Rose von Tirol
TTITLE8=Mr Right
TTITLE9=Ich hab's geschafft
TTITLE10=Total daneben
TTITLE11=Und dann schliess ich meine Augen
EXTD=
EXTT0=
EXTT1=
EXTT2=
EXTT3=
EXTT4=
EXTT5=
EXTT6=
EXTT7=
EXTT8=
EXTT9=
EXTT10=
EXTT11=
PLAYORDER=
